<svg width="36" height="36" viewBox="0 0 36 36" fill="none" xmlns="http://www.w3.org/2000/svg">
<rect x="1" y="1" width="34" height="34" fill="white"/>
<rect x="1" y="1" width="34" height="34" stroke="white" stroke-width="2"/>
<path d="M26.6049 9.08751C26.1025 8.61525 25.3108 8.6428 24.8383 9.14513L17.3383 17.1451C16.8883 17.6251 16.8883 18.3751 17.3383 18.8551L24.8383 26.8551C25.0858 27.1174 25.4181 27.2496 25.7505 27.2496C26.0578 27.2496 26.365 27.1375 26.6049 26.9127C27.1099 26.4402 27.1351 25.6476 26.6626 25.1451L19.9653 17.9996L26.6626 10.8551C27.1351 10.3501 27.1074 9.56001 26.6049 9.08751ZM17.4751 9.08751C16.9701 8.61501 16.18 8.64263 15.7075 9.14513L8.20749 17.1451C7.75759 17.6251 7.75752 18.3751 8.20749 18.8551L15.7075 26.8551C15.9549 27.1174 16.2873 27.2495 16.6196 27.2496C16.9271 27.2496 17.2351 27.1376 17.4751 26.9127C17.98 26.4403 18.005 25.6476 17.5327 25.1451L10.8354 17.9996L17.5327 10.8551C18.0051 10.3501 17.9775 9.56002 17.4751 9.08751Z" fill="#00A2FF"/>
</svg>
