<svg width="36" height="36" viewBox="0 0 36 36" fill="none" xmlns="http://www.w3.org/2000/svg">
<rect x="1" y="1" width="34" height="34" fill="white"/>
<rect x="1" y="1" width="34" height="34" stroke="white" stroke-width="2"/>
<path d="M19.7681 18.0006L26.3831 11.3856C26.8706 10.8981 26.8706 10.1056 26.3831 9.61813C25.8956 9.13063 25.1031 9.13063 24.6156 9.61813L18.0006 16.2331L11.3856 9.61563C10.8956 9.12813 10.1056 9.12813 9.61563 9.61563C9.12813 10.1056 9.12813 10.8956 9.61563 11.3856L16.2306 18.0006L9.61563 24.6156C9.12813 25.1031 9.12813 25.8956 9.61563 26.3831C9.86063 26.6281 10.1806 26.7481 10.5006 26.7481C10.8206 26.7481 11.1406 26.6256 11.3856 26.3831L18.0006 19.7681L24.6156 26.3831C24.8606 26.6281 25.1806 26.7481 25.5006 26.7481C25.8206 26.7481 26.1406 26.6256 26.3856 26.3831C26.8731 25.8956 26.8731 25.1031 26.3856 24.6156L19.7706 18.0006H19.7681Z" fill="#00A2FF"/>
</svg>
