<svg width="36" height="36" viewBox="0 0 36 36" fill="none" xmlns="http://www.w3.org/2000/svg">
<rect x="1" y="1" width="34" height="34" fill="white"/>
<rect x="1" y="1" width="34" height="34" stroke="white" stroke-width="2"/>
<path d="M22.8901 9.25C24.4076 9.25 25.6401 10.4825 25.6401 12V14.9004L29.9155 10.9521C30.4255 10.4798 31.1658 10.3573 31.8032 10.6348H31.8052C32.4401 10.9122 32.853 11.5424 32.853 12.2373V23.0273C32.853 23.7223 32.4427 24.3499 31.8052 24.6299C31.5778 24.7298 31.3404 24.7773 31.103 24.7773C30.6706 24.7773 30.2455 24.6175 29.9155 24.3125L25.6401 20.3652V24C25.6401 25.5175 24.4076 26.75 22.8901 26.75H5.89014C4.37277 26.7498 3.14014 25.5174 3.14014 24V12C3.14014 10.4826 4.37277 9.25016 5.89014 9.25H22.8901ZM5.89014 11.75C5.75277 11.7502 5.64014 11.8626 5.64014 12V24C5.64014 24.1374 5.75277 24.2498 5.89014 24.25H22.8901C23.0276 24.25 23.1401 24.1375 23.1401 24V12C23.1401 11.8625 23.0276 11.75 22.8901 11.75H5.89014ZM26.3657 17.6328L30.353 21.3125V13.9521L26.3657 17.6328Z" fill="#00A2FF"/>
</svg>
