<svg width="36" height="36" viewBox="0 0 36 36" fill="none" xmlns="http://www.w3.org/2000/svg">
<rect x="1" y="1" width="34" height="34" fill="white"/>
<rect x="1" y="1" width="34" height="34" stroke="white" stroke-width="2"/>
<path d="M7 20.5C7.69 20.5 8.25 21.06 8.25 21.75V25.5H12C12.69 25.5 13.25 26.06 13.25 26.75C13.25 27.44 12.69 28 12 28H8C6.76 28 5.75 26.99 5.75 25.75V21.75C5.75 21.06 6.31 20.5 7 20.5ZM29 20.5C29.69 20.5 30.25 21.06 30.25 21.75V25.75C30.25 26.99 29.24 28 28 28H24C23.31 28 22.75 27.44 22.75 26.75C22.75 26.06 23.31 25.5 24 25.5H27.75V21.75C27.75 21.06 28.31 20.5 29 20.5ZM12 8C12.69 8 13.25 8.56 13.25 9.25C13.25 9.94 12.69 10.5 12 10.5H8.25V14.25C8.25 14.94 7.69 15.5 7 15.5C6.31 15.5 5.75 14.94 5.75 14.25V10.25C5.75 9.01 6.76 8 8 8H12ZM28 8C29.24 8 30.25 9.01 30.25 10.25V14.25C30.25 14.94 29.69 15.5 29 15.5C28.31 15.5 27.75 14.94 27.75 14.25V10.5H24C23.31 10.5 22.75 9.94 22.75 9.25C22.75 8.56 23.31 8 24 8H28Z" fill="#00A2FF"/>
</svg>
