<svg width="36" height="36" viewBox="0 0 36 36" fill="none" xmlns="http://www.w3.org/2000/svg">
<rect x="1" y="1" width="34" height="34" fill="white"/>
<rect x="1" y="1" width="34" height="34" stroke="white" stroke-width="2"/>
<path d="M9.39603 9.08751C9.8985 8.61523 10.6902 8.64279 11.1626 9.14513L18.6626 17.1451C19.1126 17.6251 19.1126 18.3751 18.6626 18.8551L11.1626 26.8551C10.9152 27.1174 10.5829 27.2496 10.2505 27.2496C9.94321 27.2496 9.63596 27.1375 9.39603 26.9127C8.89103 26.4402 8.86591 25.6476 9.33841 25.1451L16.0357 17.9996L9.33841 10.8551C8.86591 10.3501 8.89353 9.56001 9.39603 9.08751ZM18.5259 9.08751C19.0309 8.61501 19.821 8.64263 20.2935 9.14513L27.7935 17.1451C28.2434 17.6251 28.2435 18.3751 27.7935 18.8551L20.2935 26.8551C20.0461 27.1174 19.7137 27.2495 19.3814 27.2496C19.0739 27.2496 18.7659 27.1376 18.5259 26.9127C18.021 26.4403 17.996 25.6476 18.4683 25.1451L25.1656 17.9996L18.4683 10.8551C17.9958 10.3501 18.0235 9.56003 18.5259 9.08751Z" fill="#00A2FF"/>
</svg>
