<svg width="36" height="36" viewBox="0 0 36 36" fill="none" xmlns="http://www.w3.org/2000/svg">
<rect x="1" y="1" width="34" height="34" fill="white"/>
<rect x="1" y="1" width="34" height="34" stroke="white" stroke-width="2"/>
<path d="M4.53532 6.43528C5.00781 5.93039 5.79792 5.90287 6.3029 6.37278L29.8957 28.3425C30.4005 28.8149 30.4278 29.6051 29.9582 30.1101C29.7107 30.3725 29.378 30.5075 29.0431 30.5075C28.7381 30.5075 28.4306 30.3976 28.1906 30.1726L19.8302 22.3884V28.1755C19.8302 28.6628 19.5455 29.1077 19.1007 29.3103C18.9357 29.3878 18.7577 29.4255 18.5802 29.4255C18.2878 29.4255 17.9957 29.3227 17.7658 29.1228L11.13 23.4157H6.05485C5.36516 23.4155 4.805 22.8555 4.80485 22.1657V12.7507C4.80485 12.0609 5.36507 11.501 6.05485 11.5007H8.13786L4.59782 8.20286C4.09288 7.73035 4.06534 6.94026 4.53532 6.43528ZM7.30485 14.0007V20.9157H11.5929C11.8927 20.9158 12.18 21.0228 12.4074 21.2175L17.3302 25.4529V20.0603L10.8224 14.0007H7.30485ZM26.1808 8.08762C26.6683 7.60046 27.461 7.60025 27.9484 8.08762C32.3384 12.4776 33.0776 19.4432 29.7101 24.6482C29.4726 25.0155 29.0702 25.2185 28.6603 25.2185C28.4279 25.2184 28.1925 25.1532 27.9826 25.0183C27.4028 24.6432 27.2385 23.8707 27.6134 23.2907V23.2878C30.3457 19.0679 29.7432 13.4176 26.1808 9.8552C25.6933 9.3677 25.6933 8.57512 26.1808 8.08762ZM22.8224 11.4499C23.3098 10.9626 24.1025 10.9627 24.59 11.4499C27.1925 14.0524 27.8279 18.0053 26.173 21.2878C25.953 21.7228 25.5123 21.9753 25.0548 21.9753C24.8649 21.9753 24.6723 21.9305 24.4923 21.8406C23.8775 21.528 23.6306 20.7773 23.9406 20.1599C25.1078 17.845 24.6573 15.0524 22.8224 13.2175C22.3352 12.73 22.335 11.9373 22.8224 11.4499ZM17.7882 5.77317C18.1632 5.46822 18.6779 5.40271 19.1154 5.61008C19.5528 5.81753 19.8301 6.25761 19.8302 6.73997V14.7654C19.8302 15.4553 19.2702 16.0154 18.5802 16.0154C17.8904 16.0152 17.3303 15.4552 17.3302 14.7654V9.38059L14.9054 11.365H14.9084C14.3734 11.8025 13.5851 11.7252 13.1476 11.1902C12.7104 10.6552 12.7885 9.86781 13.3234 9.4304L17.7882 5.77317Z" fill="#00A2FF"/>
</svg>
