<svg width="36" height="36" viewBox="0 0 36 36" fill="none" xmlns="http://www.w3.org/2000/svg">
<rect x="1" y="1" width="34" height="34" fill="white"/>
<rect x="1" y="1" width="34" height="34" stroke="white" stroke-width="2"/>
<path d="M17.4399 6.34084C17.8099 6.02351 18.332 5.95092 18.7769 6.15334H18.7749C19.2196 6.3559 19.5043 6.80079 19.5044 7.2881V28.7236C19.5042 29.2109 19.2196 29.6559 18.7749 29.8584C18.6099 29.9359 18.4319 29.9736 18.2544 29.9736C17.9621 29.9736 17.6699 29.8707 17.4399 29.6709L10.8042 23.9629H5.72998C5.03998 23.9629 4.47998 23.4029 4.47998 22.7129V13.2979C4.48018 12.608 5.04011 12.0479 5.72998 12.0479H10.8042L17.4399 6.34084ZM25.8569 8.63771C26.3444 8.15053 27.1371 8.15043 27.6245 8.63771H27.6265C30.1289 11.1401 31.5063 14.468 31.5063 18.0078C31.5063 21.5478 30.129 24.8754 27.6265 27.3779C27.3815 27.6204 27.0617 27.7432 26.7417 27.7432C26.4217 27.7431 26.1019 27.6229 25.8569 27.3779C25.3695 26.8904 25.3695 26.0978 25.8569 25.6104C27.8868 23.5779 29.0044 20.8802 29.0044 18.0078C29.0043 15.1355 27.8869 12.4352 25.8569 10.4053C25.3696 9.91778 25.3695 9.12517 25.8569 8.63771ZM12.0815 14.2461C11.8541 14.4409 11.5669 14.5478 11.2671 14.5479H6.97998V21.4629H11.2671C11.5669 21.4629 11.8541 21.5708 12.0815 21.7656L17.0044 26.001V10.0108L12.0815 14.2461ZM22.4966 11.9951C22.984 11.5078 23.7766 11.508 24.2642 11.9951H24.2671C27.5821 15.3076 27.5821 20.7006 24.2671 24.0156C24.0222 24.2581 23.7022 24.3808 23.3823 24.3809C23.0623 24.3809 22.7416 24.2606 22.4966 24.0156C22.0093 23.5282 22.0093 22.7355 22.4966 22.2481C23.629 21.1156 24.2543 19.6083 24.2544 18.0059C24.2544 16.4034 23.6291 14.8952 22.4966 13.7627C22.0095 13.2752 22.0092 12.4825 22.4966 11.9951Z" fill="#00A2FF"/>
</svg>
