<svg width="36" height="36" viewBox="0 0 36 36" fill="none" xmlns="http://www.w3.org/2000/svg">
<rect x="1" y="1" width="34" height="34" fill="white"/>
<rect x="1" y="1" width="34" height="34" stroke="white" stroke-width="2"/>
<path d="M19.8198 6.34089C20.1898 6.02346 20.7128 5.95091 21.1577 6.15339H21.1548C21.5996 6.35582 21.8851 6.80085 21.8853 7.28816V28.7237C21.8852 29.2112 21.5998 29.656 21.1548 29.8585C20.9899 29.9359 20.8126 29.9736 20.6353 29.9737C20.3428 29.9737 20.0498 29.871 19.8198 29.671L13.1851 23.9639H8.10986C7.41996 23.9639 6.86003 23.4038 6.85986 22.7139V13.2989C6.85986 12.6089 7.41986 12.0489 8.10986 12.0489H13.1851L19.8198 6.34089ZM14.4624 14.2462C14.2349 14.4412 13.947 14.5489 13.647 14.5489H9.35986V21.4639H13.647C13.9469 21.4639 14.2349 21.5708 14.4624 21.7657L19.3853 26.001V10.0108L14.4624 14.2462ZM24.8774 11.9962C25.3649 11.5087 26.1575 11.5087 26.645 11.9962H26.647C29.962 15.3087 29.962 20.7007 26.647 24.0157C26.402 24.2582 26.0822 24.3809 25.7622 24.3809C25.4423 24.3809 25.1224 24.2606 24.8774 24.0157C24.3901 23.5282 24.39 22.7356 24.8774 22.2481C26.0098 21.1156 26.6353 19.6083 26.6353 18.0059C26.6352 16.4035 26.0098 14.8962 24.8774 13.7637C24.39 13.2763 24.39 12.4837 24.8774 11.9962Z" fill="#00A2FF"/>
</svg>
