<svg width="36" height="36" viewBox="0 0 36 36" fill="none" xmlns="http://www.w3.org/2000/svg">
<rect x="1" y="1" width="34" height="34" fill="white"/>
<rect x="1" y="1" width="34" height="34" stroke="white" stroke-width="2"/>
<path d="M28 8.25C29.5175 8.25 30.75 9.4825 30.75 11V25C30.75 26.5175 29.5175 27.75 28 27.75H8C6.4825 27.75 5.25 26.5175 5.25 25V11C5.25 9.4825 6.4825 8.25 8 8.25H28ZM8 10.75C7.8625 10.75 7.75 10.8625 7.75 11V25C7.75 25.1375 7.8625 25.25 8 25.25H28C28.1375 25.25 28.25 25.1375 28.25 25V11C28.25 10.8625 28.1375 10.75 28 10.75H8ZM17.8125 12.8076C17.8823 12.8076 17.9522 12.8147 18.0195 12.8271C18.052 12.8346 18.0848 12.8474 18.1172 12.8574C18.1546 12.8699 18.1921 12.8777 18.2295 12.8926C18.2668 12.9075 18.3021 12.9274 18.3369 12.9473C18.3669 12.9623 18.3973 12.9776 18.4248 12.9951C18.4873 13.0351 18.5452 13.0823 18.5977 13.1348H18.5928L22.3428 16.8848C22.7827 17.3223 22.7828 18.0356 22.3428 18.4756C22.1229 18.6954 21.8352 18.8046 21.5479 18.8047C21.2604 18.8047 20.9719 18.6956 20.752 18.4756L18.9229 16.6455V22.4297C18.9229 23.052 18.4201 23.5544 17.7979 23.5547C17.1754 23.5547 16.6729 23.0522 16.6729 22.4297V16.6455L14.8428 18.4756C14.4053 18.9155 13.6919 18.9155 13.252 18.4756C12.812 18.0381 12.812 17.3248 13.252 16.8848L17.002 13.1348C17.0544 13.0823 17.1123 13.0376 17.1748 12.9951C17.2023 12.9751 17.2327 12.9623 17.2627 12.9473C17.2976 12.9298 17.3328 12.9075 17.3701 12.8926C17.4075 12.8776 17.445 12.8674 17.4824 12.8574C17.5149 12.8474 17.5451 12.8346 17.5801 12.8271C17.6474 12.8147 17.7173 12.8076 17.7871 12.8076H17.8125Z" fill="#00A2FF"/>
</svg>
