<svg width="36" height="36" viewBox="0 0 36 36" fill="none" xmlns="http://www.w3.org/2000/svg">
<rect x="1" y="1" width="34" height="34" fill="white"/>
<rect x="1" y="1" width="34" height="34" stroke="white" stroke-width="2"/>
<path d="M27 15.8C27.69 15.8 28.25 16.36 28.25 17.05C28.2499 22.3224 24.2499 26.6751 19.125 27.2375V29.177H22.25C22.8724 29.177 23.3748 29.6796 23.375 30.302C23.375 30.9245 22.8725 31.427 22.25 31.427H18.1846C18.1247 31.437 18.0649 31.4446 18 31.4446C17.9351 31.4446 17.8753 31.437 17.8154 31.427H13.75C13.1275 31.427 12.625 30.9245 12.625 30.302C12.6252 29.6796 13.1276 29.177 13.75 29.177H16.875V27.2375C11.7501 26.6751 7.75012 22.3224 7.75 17.05C7.75 16.36 8.31 15.8 9 15.8C9.69 15.8 10.25 16.36 10.25 17.05C10.2501 21.3224 13.7276 24.8 18 24.8C22.2724 24.8 25.7499 21.3224 25.75 17.05C25.75 16.36 26.31 15.8 27 15.8ZM18 4.55005C21.3075 4.55005 24 7.24255 24 10.55V17.05C23.9999 20.3574 21.3074 23.05 18 23.05C14.6926 23.05 12.0001 20.3574 12 17.05V10.55C12 7.24255 14.6925 4.55005 18 4.55005ZM18 7.05005C16.07 7.05005 14.5 8.62005 14.5 10.55V17.05C14.5001 18.9799 16.0701 20.55 18 20.55C19.9299 20.55 21.4999 18.9799 21.5 17.05V10.55C21.5 8.62005 19.93 7.05005 18 7.05005Z" fill="#00A2FF"/>
</svg>
