<svg width="36" height="36" viewBox="0 0 36 36" fill="none" xmlns="http://www.w3.org/2000/svg">
<rect x="1" y="1" width="34" height="34" fill="white"/>
<rect x="1" y="1" width="34" height="34" stroke="white" stroke-width="2"/>
<path d="M18 3.5C25.995 3.5 32.5 10.005 32.5 18C32.5 25.995 25.995 32.5 18 32.5C10.005 32.5 3.5 25.995 3.5 18C3.5 10.005 10.005 3.5 18 3.5ZM18 6C11.3825 6 6 11.3825 6 18C6 24.6175 11.3825 30 18 30C24.6175 30 30 24.6175 30 18C30 11.3825 24.6175 6 18 6ZM11.9932 14.418C12.4531 14.0005 13.1655 14.0323 13.583 14.4922V14.4951L16.083 17.2451C16.4729 17.6726 16.473 18.3279 16.083 18.7578L13.583 21.5078C13.3605 21.7503 13.055 21.875 12.75 21.875C12.4803 21.8749 12.208 21.7777 11.9932 21.583C11.5332 21.163 11.5005 20.4522 11.918 19.9922L13.7305 18L11.918 16.0078C11.5005 15.5478 11.5332 14.8355 11.9932 14.418ZM18.75 14.375C19.3725 14.375 19.875 14.8775 19.875 15.5V20.5C19.875 21.1225 19.3725 21.625 18.75 21.625C18.1275 21.625 17.625 21.1225 17.625 20.5V15.5C17.625 14.8775 18.1275 14.375 18.75 14.375ZM22.25 14.375C22.8725 14.375 23.375 14.8775 23.375 15.5V20.5C23.375 21.1225 22.8725 21.625 22.25 21.625C21.6275 21.625 21.125 21.1225 21.125 20.5V15.5C21.125 14.8775 21.6275 14.375 22.25 14.375Z" fill="#00A2FF"/>
</svg>
