<svg width="180" height="38" viewBox="0 0 180 38" fill="none" xmlns="http://www.w3.org/2000/svg">
<rect x="1" y="1" width="178" height="36" fill="white"/>
<rect x="1" y="1" width="178" height="36" stroke="white" stroke-width="2"/>
<g clip-path="url(#clip0_2021_195)">
<path d="M19.8128 19.8361C19.4035 19.4523 18.943 19.1197 18.3801 18.8639C17.8173 18.6081 17.28 18.3778 16.6916 18.1987C16.1032 18.0196 15.5659 17.815 15.131 17.6359C14.6705 17.4568 14.2868 17.2266 13.9542 16.9963C13.6472 16.766 13.4169 16.5102 13.2378 16.2032C13.0587 15.8962 12.982 15.538 12.982 15.1031C12.982 14.7961 13.0332 14.4635 13.1355 14.1565C13.2634 13.8495 13.4425 13.5937 13.6727 13.3378C13.903 13.1076 14.2356 12.9285 14.6449 12.775C15.0543 12.6471 15.5403 12.5703 16.1288 12.5703C16.8963 12.5703 17.5615 12.6983 18.1499 12.9285C18.7383 13.1843 19.1988 13.4146 19.557 13.696C19.6593 13.7728 19.7872 13.8495 19.864 13.9518C19.9407 14.0286 20.0431 14.1053 20.0942 14.1565C20.3245 13.9263 20.5292 13.696 20.7082 13.4658C20.8617 13.2355 20.9385 13.0053 20.9385 12.8006C20.9385 12.5703 20.8617 12.3145 20.6827 12.1354C20.478 11.9307 20.2733 11.7517 19.9919 11.5726C19.4802 11.2656 18.8662 11.0353 18.1499 10.8818C17.4335 10.7283 16.7684 10.626 16.1544 10.626C15.3613 10.626 14.6449 10.7283 13.9797 10.933C13.3402 11.1376 12.7517 11.4191 12.2656 11.8284C11.7796 12.2377 11.3958 12.6983 11.14 13.2867C10.8585 13.8751 10.705 14.5659 10.705 15.3078C10.705 16.0497 10.833 16.7405 11.1144 17.2777C11.3702 17.815 11.7284 18.2499 12.1633 18.6081C12.6238 18.9662 13.1355 19.2477 13.7239 19.5035C14.2868 19.7337 14.9008 19.9384 15.5148 20.1175C16.052 20.2966 16.5381 20.4757 16.973 20.6548C17.3824 20.8594 17.7405 21.0641 18.022 21.3455C18.2778 21.6014 18.508 21.9084 18.6616 22.2409C18.8151 22.5735 18.8918 22.9829 18.8918 23.4945C18.8918 23.8527 18.8151 24.2109 18.7127 24.5691C18.5848 24.9016 18.4057 25.2086 18.1499 25.4901C17.894 25.7459 17.5359 25.9762 17.101 26.1552C16.666 26.3343 16.1032 26.4111 15.438 26.4111C14.5682 26.4111 13.7495 26.2576 13.0076 25.925C12.2656 25.618 11.6261 25.2086 11.0888 24.7737C10.8841 25.0296 10.705 25.2854 10.5515 25.5924C10.398 25.8738 10.3213 26.1041 10.3213 26.3087C10.3213 26.6669 10.5515 26.9995 10.9609 27.2553C11.4214 27.5879 12.061 27.8693 12.8541 28.074C13.6472 28.2787 14.517 28.381 15.4636 28.381C16.3079 28.381 17.0754 28.2787 17.7917 28.0484C18.508 27.8438 19.0965 27.4856 19.6081 27.0507C20.1198 26.6157 20.5036 26.0785 20.785 25.4389C21.0664 24.7993 21.1943 24.0574 21.1943 23.2131C21.1943 22.4968 21.0664 21.8572 20.8362 21.2943C20.5803 20.7315 20.2733 20.271 19.864 19.8872L19.8128 19.8361Z" fill="#00A2FF"/>
<path d="M64.8401 10.8308C64.3285 10.8308 63.9959 10.9843 63.8168 11.2913C63.6121 11.5983 63.4842 12.0332 63.3563 12.5449L60.7468 23.6994L57.8814 12.417C57.7535 11.8542 57.5744 11.4704 57.3953 11.2146C57.1906 10.9587 56.8581 10.8308 56.3975 10.8308C56.1929 10.8308 56.0138 10.8308 55.8603 10.882C55.7068 10.9076 55.5533 10.9587 55.4254 11.0099L52.0739 23.8785L49.2597 12.3914C49.1318 11.8797 48.9271 11.496 48.6457 11.2401C48.3643 10.9843 48.0317 10.8564 47.6735 10.8564C47.4689 10.8564 47.2642 10.8564 47.0595 10.9331C46.8549 10.9843 46.6758 11.0355 46.5479 11.1122L51.1529 28.0742H52.8414L56.3975 14.7451L59.9537 28.0742H61.591L65.9914 11.0355C65.8635 10.9843 65.6844 10.9331 65.4542 10.882C65.2239 10.8308 65.0192 10.8308 64.8401 10.8308Z" fill="#00A2FF"/>
<path d="M93.9795 11.1635C93.826 11.0356 93.6469 10.9588 93.4679 10.9332C93.2888 10.8821 93.1097 10.8821 92.9306 10.8821C92.8539 10.8821 92.7515 10.8821 92.6236 10.8821C92.4957 10.8821 92.3934 10.8821 92.291 10.9332V27.9464H94.5168V12.4683C94.5168 12.1101 94.44 11.8287 94.3377 11.624C94.261 11.4193 94.1074 11.2403 93.9539 11.1379L93.9795 11.1635Z" fill="#00A2FF"/>
<path d="M132.636 10.9326H122.838V27.9457H125.064V19.8613H130.82V17.8914H125.064V12.8514H131.127C131.715 12.8514 132.15 12.7235 132.355 12.4676C132.585 12.1862 132.688 11.8792 132.688 11.4955C132.688 11.342 132.688 11.2396 132.688 11.1885C132.688 11.1373 132.688 11.0605 132.636 10.9582V10.9326Z" fill="#00A2FF"/>
<path d="M170.219 10.9326H158.553C158.067 10.9326 157.657 11.0605 157.402 11.3164C157.146 11.5722 156.992 11.8536 156.992 12.1862C156.992 12.4421 156.992 12.6723 157.069 12.9026H162.467V27.9457H164.693V12.9026H168.684C169.221 12.9026 169.605 12.7746 169.861 12.4932C170.117 12.2118 170.245 11.9048 170.245 11.521V11.2396C170.245 11.2396 170.219 11.0094 170.193 10.9326H170.219Z" fill="#00A2FF"/>
</g>
<defs>
<clipPath id="clip0_2021_195">
<rect width="160" height="17.7295" fill="white" transform="translate(10.27 10.6003)"/>
</clipPath>
</defs>
</svg>
