<svg width="36" height="36" viewBox="0 0 36 36" fill="none" xmlns="http://www.w3.org/2000/svg">
<rect x="1" y="1" width="34" height="34" fill="white"/>
<rect x="1" y="1" width="34" height="34" stroke="white" stroke-width="2"/>
<path d="M20.705 30.075C20.095 30.075 19.505 29.8225 19.0825 29.385L15.345 25.5H8.5C6.7075 25.5 5.25 24.0425 5.25 22.25V12.25C5.25 10.4575 6.7075 9 8.5 9H27.5C29.2925 9 30.75 10.4575 30.75 12.25V22.25C30.75 24.0425 29.2925 25.5 27.5 25.5H26.02L22.3375 29.375C21.9175 29.8175 21.325 30.0725 20.7125 30.075H20.705ZM8.5 11.5C8.0875 11.5 7.75 11.8375 7.75 12.25V22.25C7.75 22.6625 8.0875 23 8.5 23H15.88C16.22 23 16.545 23.1375 16.78 23.3825L20.705 27.4625L24.5775 23.3875C24.8125 23.14 25.14 22.9975 25.4825 22.9975H27.5C27.9125 22.9975 28.25 22.66 28.25 22.2475V12.25C28.25 11.8375 27.9125 11.5 27.5 11.5H8.5Z" fill="#00A2FF"/>
</svg>
